/* XPM */
static char *_24aa6d8af3c48719d3e4b2a077b1635[] = {
/* columns rows colors chars-per-pixel */
"16 16 2 1 ",
"  c #1C1B50",
". c None",
/* pixels */
"................",
"....... ........",
".......  .......",
".......    .....",
".......      ...",
"......        ..",
".....         ..",
"....          ..",
"...          ...",
"...        .....",
"...  .     .....",
"...        . ...",
"....    .  . ...",
".....    . . ...",
".......  ...   .",
"........ ......."
};
