/* XPM */
static char *_57b914266b948faf8eef20a015bf8ef[] = {
/* columns rows colors chars-per-pixel */
"64 64 2 1 ",
"  c #1C1B50",
". c None",
/* pixels */
"................................................................",
"................................................................",
"................................................................",
".......................... .....................................",
"...........................  ...................................",
"...........................   ..................................",
"...........................    .................................",
"...........................     ................................",
"...........................      ...............................",
"...........................       ..............................",
"...........................        .............................",
"...........................         ............................",
"...........................           ..........................",
"...........................                .....................",
"...........................                  ...................",
"...........................                   ..................",
"..........................                     .................",
".........................                       ................",
"........................                         ...............",
".......................                           ..............",
".......................                             ............",
"......................                                ..........",
".....................                                  .........",
"....................                                   .........",
"....................                                   .........",
"...................                                   ..........",
"................ ..                                   ..........",
"............... ..                                   ...........",
"..............  ..                                   ...........",
".............  ...                                  ............",
".............  ...                                 .............",
"............   ...                                 .............",
"...........    ...                                ..............",
"...........    ...                         .....................",
"..........     ...                        ......................",
"..........     ....                       ......................",
"..........      ...                      .......................",
".........       ...                      .......................",
".........       ....                    ........................",
".........        ....                   ........................",
".........        ....                   ........................",
"..........        ....                 .........................",
"..........         ....                .........................",
"..........          .....              ......      .............",
"..........           ......            .......    ..............",
"...........            .....           ........  ...............",
"...........             ......          .......  ...............",
"............              ......        .......  ...............",
".............               ......      .......  ...............",
".............                 ......    .......  ...............",
"...............                ......   .......  ...............",
"................                 .....   ......  ...............",
"..................               ......  ......  ...............",
"...................               ...... ......  ...............",
".....................             .............  ...... ........",
".......................           .............  .....  ........",
".........................         ............    ...   ........",
"...........................      ............           ........",
"............................     ...............................",
".............................    ...............................",
"..............................  ................................",
"............................... ................................",
"................................................................",
"................................................................"
};
