/* XPM */
static char *ae3a9287257b466ae40bbbbf167c1233[] = {
/* columns rows colors chars-per-pixel */
"32 32 2 1 ",
"  c #1C1B50",
". c None",
/* pixels */
"................................",
"................................",
".............. .................",
"..............  ................",
"..............   ...............",
"..............    ..............",
"..............     .............",
"..............         .........",
"..............          ........",
".............            .......",
"............              ......",
"...........                 ....",
"..........                  ....",
"..........                  ....",
"........ .                 .....",
"....... .                 ......",
"......  .                 ......",
"......  ..            ..........",
".....   ..           ...........",
".....    .           ...........",
".....    ..         ............",
".....     ..        ............",
"......     ..       ...   ......",
"......      ...     .... .......",
"......        ...   .... .......",
".......         ..   ... .......",
".........        ... ... .......",
"..........       ....... .......",
"............     ....... .. ....",
"..............   ......     ....",
"...............  ...............",
"................................"
};
