/* XPM */
static char *_a5b3e756c4b467edf1f3d2a534e74a1[] = {
/* columns rows colors chars-per-pixel */
"128 128 2 1 ",
"  c #1C1B50",
". c None",
/* pixels */
"................................................................................................................................",
"................................................................................................................................",
"................................................................................................................................",
"................................................................................................................................",
"................................................................................................................................",
"................................................... ............................................................................",
".................................................... ...........................................................................",
"....................................................  ..........................................................................",
".....................................................  .........................................................................",
".....................................................   ........................................................................",
".....................................................     ......................................................................",
".....................................................      .....................................................................",
"......................................................      ....................................................................",
"......................................................       ...................................................................",
"......................................................        ..................................................................",
"......................................................          ................................................................",
"......................................................           ...............................................................",
"......................................................            ..............................................................",
"......................................................             .............................................................",
"......................................................             .............................................................",
"......................................................              ............................................................",
"......................................................               ...........................................................",
"......................................................               ...........................................................",
"......................................................                ..........................................................",
"......................................................                  ........................................................",
"......................................................                       ...................................................",
"......................................................                            ..............................................",
"......................................................                               ...........................................",
".....................................................                                   ........................................",
".....................................................                                    .......................................",
".....................................................                                     ......................................",
"....................................................                                       .....................................",
"....................................................                                        ....................................",
"...................................................                                          ...................................",
"..................................................                                            ..................................",
".................................................                                              .................................",
"................................................                                                ................................",
"...............................................                                                  ...............................",
"...............................................                                                   ..............................",
"..............................................                                                     .............................",
".............................................                                                        ...........................",
"............................................                                                           .........................",
"...........................................                                                              .......................",
"..........................................                                                                 .....................",
".........................................                                                                   ....................",
".........................................                                                                    ...................",
"........................................                                                                     ...................",
".......................................                                                                      ...................",
".......................................                                                                      ...................",
"......................................                                                                      ....................",
"......................................                                                                      ....................",
".....................................                                                                      .....................",
"................................ ....                                                                      .....................",
"............................... ....                                                                      ......................",
"..............................  ....                                                                      ......................",
".............................  .....                                                                     .......................",
"............................   .....                                                                    ........................",
"...........................   .....                                                                     ........................",
"..........................    .....                                                                    .........................",
"..........................    .....                                                                   ..........................",
".........................    ......                                                                   ..........................",
"........................     ......                                                                  ...........................",
".......................      ......                                                                 ............................",
".......................      ......                                                                 ............................",
"......................       ......                                                                .............................",
".....................        ......                                                    .....      ..............................",
".....................        .......                                                 .......... ................................",
"....................         .......                                                ............................................",
"....................         .......                                                ............................................",
"...................          .......                                               .............................................",
"...................           ......                                              ..............................................",
"...................           .......                                             ..............................................",
"...................           .......                                            ...............................................",
"..................            .......                                            ...............................................",
"..................            ........                                          ................................................",
"..................             .......                                          ................................................",
"..................             ........                                        .................................................",
"..................             ........                                        .................................................",
"..................              ........                                       .................................................",
"..................              .........                                     ..................................................",
"..................               ........                                     ..................................................",
"..................               .........                                    ..................................................",
"..................                .........                                   ..................................................",
"...................                .........                                  ..................................................",
"...................                 ..........                               ...................................................",
"...................                 ...........                              ...................................................",
"...................                  ............                            ............           ............................",
"...................                    ...........                           ............           ............................",
"....................                    ............                         ..............       ..............................",
"....................                     ............                        ...............     ...............................",
"....................                       ............                       ..............     ...............................",
".....................                        ............                     ..............     ...............................",
".....................                         .............                   ..............     ...............................",
"......................                          .............                 ..............     ...............................",
"......................                            .............               ..............     ...............................",
".......................                             ............              ..............     ...............................",
"........................                              ............             .............     ...............................",
".........................                              .............           .............     ...............................",
"..........................                               .............         .............     ...............................",
"...........................                                ............        .............     ...............................",
"............................                                 ............      .............     ...............................",
".............................                                 ............      ............     ...............................",
"...............................                                ............     ............     ...............................",
"................................                                ............    ............     ...............................",
"..................................                               ............   ............     ...............................",
"...................................                               ............  ............     ...............................",
".....................................                             ............  ............     ...............................",
".......................................                           ............. ............     ...............................",
".........................................                         ..........................     ...............................",
"...........................................                       ..........................     ...........   .................",
".............................................                     ..........................     ...........   .................",
"..............................................                    ..........................     ..........   ..................",
"................................................                  ..........................     .........    ..................",
"..................................................                ..........................      .......     ..................",
"....................................................             .........................                    ..................",
".....................................................            ........................                     ..................",
".......................................................          ...............................................................",
"........................................................         ...............................................................",
"..........................................................      ................................................................",
"...........................................................     ................................................................",
"............................................................    ................................................................",
"............................................................   .................................................................",
".............................................................  .................................................................",
".............................................................. .................................................................",
".............................................................. .................................................................",
"................................................................................................................................",
"................................................................................................................................",
"................................................................................................................................"
};
